<svg width="40" height="40" viewBox="0 0 40 40" fill="none" xmlns="http://www.w3.org/2000/svg">
<g id="vuesax/bold/arrow-square-right">
<g id="arrow-square-right">
<path id="Vector" d="M26.983 3.33301H13.0163C6.94967 3.33301 3.33301 6.94967 3.33301 13.0163V26.9663C3.33301 33.0497 6.94967 36.6663 13.0163 36.6663H26.9663C33.033 36.6663 36.6497 33.0497 36.6497 26.983V13.0163C36.6663 6.94967 33.0497 3.33301 26.983 3.33301ZM24.6497 20.883L18.7663 26.7663C18.5163 27.0163 18.1997 27.133 17.883 27.133C17.5663 27.133 17.2497 27.0163 16.9997 26.7663C16.5163 26.283 16.5163 25.483 16.9997 24.9997L21.9997 19.9997L16.9997 14.9997C16.5163 14.5163 16.5163 13.7163 16.9997 13.233C17.483 12.7497 18.283 12.7497 18.7663 13.233L24.6497 19.1163C25.1497 19.5997 25.1497 20.3997 24.6497 20.883Z" fill="white"/>
</g>
</g>
</svg>
