<svg width="40" height="40" viewBox="0 0 40 40" fill="none" xmlns="http://www.w3.org/2000/svg">
<g id="vuesax/bold/location">
<path id="Vector" d="M34.3668 14.0827C32.6168 6.38268 25.9002 2.91602 20.0002 2.91602C20.0002 2.91602 20.0002 2.91602 19.9835 2.91602C14.1002 2.91602 7.36683 6.36601 5.61683 14.066C3.66683 22.666 8.93349 29.9493 13.7002 34.5327C15.4668 36.2327 17.7335 37.0827 20.0002 37.0827C22.2668 37.0827 24.5335 36.2327 26.2835 34.5327C31.0502 29.9493 36.3168 22.6827 34.3668 14.0827ZM20.0002 22.4327C17.1002 22.4327 14.7502 20.0827 14.7502 17.1827C14.7502 14.2827 17.1002 11.9327 20.0002 11.9327C22.9002 11.9327 25.2502 14.2827 25.2502 17.1827C25.2502 20.0827 22.9002 22.4327 20.0002 22.4327Z" fill="white"/>
</g>
</svg>
