<svg width="40" height="40" viewBox="0 0 40 40" fill="none" xmlns="http://www.w3.org/2000/svg">
<g id="vuesax/bold/mobile">
<g id="mobile">
<path id="Vector" d="M27.067 3.33398H12.9337C8.33366 3.33398 6.66699 5.00065 6.66699 9.68398V30.3173C6.66699 35.0007 8.33366 36.6673 12.9337 36.6673H27.0503C31.667 36.6673 33.3337 35.0007 33.3337 30.3173V9.68398C33.3337 5.00065 31.667 3.33398 27.067 3.33398ZM20.0003 32.1673C18.4003 32.1673 17.0837 30.8507 17.0837 29.2507C17.0837 27.6507 18.4003 26.334 20.0003 26.334C21.6003 26.334 22.917 27.6507 22.917 29.2507C22.917 30.8507 21.6003 32.1673 20.0003 32.1673ZM23.3337 10.4173H16.667C15.9837 10.4173 15.417 9.85065 15.417 9.16732C15.417 8.48398 15.9837 7.91732 16.667 7.91732H23.3337C24.017 7.91732 24.5837 8.48398 24.5837 9.16732C24.5837 9.85065 24.017 10.4173 23.3337 10.4173Z" fill="white"/>
</g>
</g>
</svg>
