<svg width="24" height="25" viewBox="0 0 24 25" fill="none" xmlns="http://www.w3.org/2000/svg">
<g id="vuesax/bold/pen-tool-2">
<g id="pen-tool-2">
<path id="Vector" d="M20.9795 10.9443C20.7595 7.00405 17.8695 3.72055 14.0095 3.05374C13.9495 2.27581 13.3095 1.64941 12.5195 1.64941H11.5195C10.7295 1.64941 10.0995 2.2657 10.0295 3.04364C6.14953 3.69024 3.23953 6.98385 3.01953 10.9443C2.30953 11.0655 1.76953 11.6818 1.76953 12.4294V13.4397C1.76953 14.2783 2.43953 14.9552 3.26953 14.9552H4.26953C5.09953 14.9552 5.76953 14.2783 5.76953 13.4397V12.4294C5.76953 11.6818 5.22953 11.0655 4.51953 10.9443C4.72953 7.79209 7.01953 5.17539 10.0795 4.56921C10.2495 5.21581 10.8295 5.69065 11.5195 5.69065H12.5195C13.2095 5.69065 13.7795 5.21581 13.9595 4.57931C16.9995 5.1956 19.2695 7.8123 19.4795 10.9443C18.7695 11.0655 18.2295 11.6818 18.2295 12.4294V13.4397C18.2295 14.2783 18.8995 14.9552 19.7295 14.9552H20.7295C21.5595 14.9552 22.2295 14.2783 22.2295 13.4397V12.4294C22.2295 11.6818 21.6895 11.0554 20.9795 10.9443Z" fill="black"/>
<g id="Group">
<path id="Vector_2" d="M15.7703 16.8544L14.1303 18.3194H9.88032L8.24032 16.8544C7.29032 16.0664 7.29032 15.4602 8.01032 14.5307L10.9003 10.833C11.1003 10.5804 11.3303 10.4086 11.5903 10.3177C11.8603 10.2268 12.1503 10.2268 12.4303 10.3177C12.6803 10.4086 12.9103 10.5804 13.1203 10.833L16.0003 14.5206C16.7303 15.4501 16.6903 16.026 15.7703 16.8544Z" fill="black"/>
<path id="Vector_3" d="M13.3202 22.3607H10.7302C9.81017 22.3607 9.12017 21.603 9.30017 20.7947L9.61017 19.3904C9.67017 19.1075 9.92017 18.9155 10.2002 18.9155H13.8502C14.1302 18.9155 14.3702 19.1075 14.4402 19.3904L14.7502 20.7947C14.9402 21.6535 14.3002 22.3607 13.3202 22.3607Z" fill="black"/>
</g>
</g>
</g>
</svg>
