<svg width="24" height="25" viewBox="0 0 24 25" fill="none" xmlns="http://www.w3.org/2000/svg">
<g id="vuesax/bold/people">
<g id="people">
<path id="Vector" d="M17.53 7.98378C17.46 7.97368 17.39 7.97368 17.32 7.98378C15.77 7.93327 14.54 6.65017 14.54 5.07409C14.54 3.4677 15.83 2.1543 17.43 2.1543C19.02 2.1543 20.32 3.4576 20.32 5.07409C20.31 6.65017 19.08 7.93327 17.53 7.98378Z" fill="black"/>
<path id="Vector_2" d="M20.7896 14.9851C19.6696 15.7428 18.0996 16.0257 16.6496 15.8338C17.0296 15.0053 17.2296 14.0859 17.2396 13.116C17.2396 12.1057 17.0196 11.1459 16.5996 10.3074C18.0796 10.1053 19.6496 10.3882 20.7796 11.1459C22.3596 12.1967 22.3596 13.9243 20.7896 14.9851Z" fill="black"/>
<path id="Vector_3" d="M6.44016 7.98378C6.51016 7.97368 6.58016 7.97368 6.65016 7.98378C8.20016 7.93327 9.43016 6.65017 9.43016 5.07409C9.43016 3.4576 8.14016 2.1543 6.54016 2.1543C4.95016 2.1543 3.66016 3.4576 3.66016 5.07409C3.66016 6.65017 4.89016 7.93327 6.44016 7.98378Z" fill="black"/>
<path id="Vector_4" d="M6.55012 13.1162C6.55012 14.0962 6.76012 15.0257 7.14012 15.8643C5.73012 16.0158 4.26012 15.7127 3.18012 14.9954C1.60012 13.9346 1.60012 12.2069 3.18012 11.1461C4.25012 10.4187 5.76012 10.1257 7.18012 10.2874C6.77012 11.136 6.55012 12.0958 6.55012 13.1162Z" fill="black"/>
<path id="Vector_5" d="M12.1198 16.1674C12.0398 16.1573 11.9498 16.1573 11.8598 16.1674C10.0198 16.1068 8.5498 14.5812 8.5498 12.702C8.5598 10.7824 10.0898 9.22656 11.9998 9.22656C13.8998 9.22656 15.4398 10.7824 15.4398 12.702C15.4298 14.5812 13.9698 16.1068 12.1198 16.1674Z" fill="black"/>
<path id="Vector_6" d="M8.8698 18.2586C7.3598 19.279 7.3598 20.9561 8.8698 21.9664C10.5898 23.1283 13.4098 23.1283 15.1298 21.9664C16.6398 20.946 16.6398 19.2689 15.1298 18.2586C13.4198 17.0967 10.5998 17.0967 8.8698 18.2586Z" fill="black"/>
</g>
</g>
</svg>
